<svg width="24" height="24" viewBox="0 0 24 24" fill="none" xmlns="http://www.w3.org/2000/svg">
<path d="M9 8.5V6.5C9 5.67157 9.67157 5 10.5 5C11.3284 5 12 5.67157 12 6.5V11" stroke="#F4F5FF" stroke-width="1.6" stroke-linecap="round"/>
<path d="M12 9.5V6.5C12 5.67157 12.6716 5 13.5 5C14.3284 5 15 5.67157 15 6.5V11.5" stroke="#F4F5FF" stroke-width="1.6" stroke-linecap="round"/>
<path d="M15 10V7.5C15 6.67157 15.6716 6 16.5 6C17.3284 6 18 6.67157 18 7.5V12.5C18 14.433 16.433 16 14.5 16H11" stroke="#F4F5FF" stroke-width="1.6" stroke-linecap="round" stroke-linejoin="round"/>
<path d="M7 12.5C7 11.6716 7.67157 11 8.5 11H12.5C13.3284 11 14 11.6716 14 12.5V14C14 16.2091 12.2091 18 10 18H9C7.34315 18 6 16.6569 6 15V14.5C6 13.6716 6.67157 13 7.5 13C8.32843 13 9 12.3284 9 11.5V11" stroke="#F4F5FF" stroke-width="1.6" stroke-linecap="round" stroke-linejoin="round"/>
<path d="M11 16L13.5 19.5" stroke="#F4F5FF" stroke-width="1.6" stroke-linecap="round"/>
</svg>
