<svg width="24" height="24" viewBox="0 0 24 24" fill="none" xmlns="http://www.w3.org/2000/svg">
<path d="M9 5H13.586C13.8512 5 14.1055 5.10536 14.293 5.29289L17.7071 8.70711C17.8946 8.89464 18 9.14899 18 9.41421V17C18 18.1046 17.1046 19 16 19H9C7.89543 19 7 18.1046 7 17V7C7 5.89543 7.89543 5 9 5Z" stroke="#F4F5FF" stroke-width="1.6" stroke-linejoin="round" fill="#F4F5FF" fill-opacity="0.04"/>
<path d="M14.5 5V8.5C14.5 9.05228 14.9477 9.5 15.5 9.5H18" stroke="#F4F5FF" stroke-width="1.6"/>
<path d="M9.5 13H11.5M13.5 13H11.5M11.5 13V11M11.5 13V15" stroke="#F4F5FF" stroke-width="1.6" stroke-linecap="round"/>
</svg>
