<svg width="24" height="24" viewBox="0 0 24 24" fill="none" xmlns="http://www.w3.org/2000/svg">
<path d="M6.5 9H10.0858C10.351 9 10.6054 9.10536 10.7929 9.29289L12.2071 10.7071C12.3946 10.8946 12.649 11 12.9142 11H17.5C18.3284 11 19 11.6716 19 12.5V16.5C19 17.3284 18.3284 18 17.5 18H7.5C6.67157 18 6 17.3284 6 16.5V9.5C6 9.22386 6.22386 9 6.5 9Z" stroke="#F4F5FF" stroke-width="1.6" stroke-linejoin="round" fill="#F4F5FF" fill-opacity="0.04"/>
<path d="M7 8V7C7 5.89543 7.89543 5 9 5H10.5C10.7652 5 11.0196 5.10536 11.2071 5.29289L12.7071 6.79289C12.8946 6.98043 13.149 7.08579 13.4142 7.08579H17C18.1046 7.08579 19 7.98122 19 9.08579V10" stroke="#F4F5FF" stroke-width="1.6" stroke-linecap="round" stroke-linejoin="round"/>
<path d="M12 13L14 15L18 11" stroke="#F4F5FF" stroke-width="1.6" stroke-linecap="round" stroke-linejoin="round"/>
</svg>
