<svg width="24" height="24" viewBox="0 0 24 24" fill="none" xmlns="http://www.w3.org/2000/svg">
<path d="M7 6.5C7 5.67157 7.67157 5 8.5 5H15.0858C15.351 5 15.6054 5.10536 15.7929 5.29289L18.7071 8.20711C18.8946 8.39464 19 8.64899 19 8.91421V17.5C19 18.3284 18.3284 19 17.5 19H8.5C7.67157 19 7 18.3284 7 17.5V6.5Z" stroke="#F4F5FF" stroke-width="1.6" stroke-linejoin="round" fill="#F4F5FF" fill-opacity="0.04"/>
<path d="M9 9V7.5C9 6.67157 9.67157 6 10.5 6H13.5C14.3284 6 15 6.67157 15 7.5V9" stroke="#F4F5FF" stroke-width="1.6" stroke-linecap="round"/>
<rect x="9" y="12" width="6" height="5" rx="1" stroke="#F4F5FF" stroke-width="1.6"/>
<circle cx="15.5" cy="8.5" r="0.75" fill="#F4F5FF"/>
</svg>
